<mxfile host="app.diagrams.net" agent="Mozilla/5.0 (Windows NT 10.0; Win64; x64) AppleWebKit/537.36 (KHTML, like Gecko) Chrome/131.0.0.0 Safari/537.36 Edg/131.0.0.0" version="26.0.5">
  <diagram name="Page-1" id="wEv5kl6lVrXic3sggZIr">
    <mxGraphModel dx="1042" dy="1665" grid="1" gridSize="10" guides="1" tooltips="1" connect="1" arrows="1" fold="1" page="1" pageScale="1" pageWidth="850" pageHeight="1100" math="0" shadow="0">
      <root>
        <mxCell id="0" />
        <mxCell id="1" parent="0" />
        <mxCell id="Ob8XqHAcb-Q5rWQWY1fi-1" style="rounded=0;orthogonalLoop=1;jettySize=auto;html=1;exitX=0.5;exitY=0.5;exitDx=0;exitDy=0;exitPerimeter=0;" edge="1" parent="1" source="Ob8XqHAcb-Q5rWQWY1fi-2" target="Ob8XqHAcb-Q5rWQWY1fi-3">
          <mxGeometry relative="1" as="geometry" />
        </mxCell>
        <mxCell id="Ob8XqHAcb-Q5rWQWY1fi-2" value="Khách hàng" style="shape=umlActor;html=1;verticalLabelPosition=top;verticalAlign=bottom;align=center;labelPosition=center;" vertex="1" parent="1">
          <mxGeometry x="130" y="205" width="30" height="60" as="geometry" />
        </mxCell>
        <mxCell id="Ob8XqHAcb-Q5rWQWY1fi-3" value="Đặt hàng" style="ellipse;whiteSpace=wrap;html=1;" vertex="1" parent="1">
          <mxGeometry x="210" y="200" width="140" height="70" as="geometry" />
        </mxCell>
        <mxCell id="Ob8XqHAcb-Q5rWQWY1fi-4" value="Chọn địa chỉ" style="ellipse;whiteSpace=wrap;html=1;" vertex="1" parent="1">
          <mxGeometry x="450" y="200" width="140" height="70" as="geometry" />
        </mxCell>
        <mxCell id="Ob8XqHAcb-Q5rWQWY1fi-5" value="&amp;lt;&amp;lt;include&amp;gt;&amp;gt;" style="edgeStyle=none;html=1;endArrow=open;verticalAlign=bottom;dashed=1;labelBackgroundColor=none;rounded=0;exitX=1;exitY=0.5;exitDx=0;exitDy=0;entryX=0;entryY=0.5;entryDx=0;entryDy=0;" edge="1" parent="1" source="Ob8XqHAcb-Q5rWQWY1fi-3" target="Ob8XqHAcb-Q5rWQWY1fi-4">
          <mxGeometry width="160" relative="1" as="geometry">
            <mxPoint x="190" y="180" as="sourcePoint" />
            <mxPoint x="350" y="180" as="targetPoint" />
          </mxGeometry>
        </mxCell>
        <mxCell id="Ob8XqHAcb-Q5rWQWY1fi-6" value="&amp;lt;&amp;lt;include&amp;gt;&amp;gt;" style="edgeStyle=elbowEdgeStyle;html=1;endArrow=open;verticalAlign=bottom;dashed=1;labelBackgroundColor=none;rounded=0;exitX=1;exitY=0;exitDx=0;exitDy=0;entryX=0;entryY=0.5;entryDx=0;entryDy=0;elbow=vertical;" edge="1" parent="1" source="Ob8XqHAcb-Q5rWQWY1fi-3" target="Ob8XqHAcb-Q5rWQWY1fi-14">
          <mxGeometry x="0.5238" y="5" width="160" relative="1" as="geometry">
            <mxPoint x="400" y="250" as="sourcePoint" />
            <mxPoint x="451" y="130" as="targetPoint" />
            <Array as="points">
              <mxPoint x="400" y="125" />
            </Array>
            <mxPoint as="offset" />
          </mxGeometry>
        </mxCell>
        <mxCell id="Ob8XqHAcb-Q5rWQWY1fi-7" value="Xem giỏ hàng" style="ellipse;whiteSpace=wrap;html=1;" vertex="1" parent="1">
          <mxGeometry x="450" y="480" width="140" height="70" as="geometry" />
        </mxCell>
        <mxCell id="Ob8XqHAcb-Q5rWQWY1fi-9" value="&amp;lt;&amp;lt;include&amp;gt;&amp;gt;" style="edgeStyle=elbowEdgeStyle;html=1;endArrow=open;verticalAlign=bottom;dashed=1;labelBackgroundColor=none;rounded=0;entryX=0;entryY=0.5;entryDx=0;entryDy=0;" edge="1" parent="1" target="Ob8XqHAcb-Q5rWQWY1fi-7">
          <mxGeometry x="0.5701" y="5" width="160" relative="1" as="geometry">
            <mxPoint x="290" y="270" as="sourcePoint" />
            <mxPoint x="500" y="185" as="targetPoint" />
            <Array as="points">
              <mxPoint x="290" y="400" />
            </Array>
            <mxPoint as="offset" />
          </mxGeometry>
        </mxCell>
        <mxCell id="Ob8XqHAcb-Q5rWQWY1fi-10" value="Xóa sản phẩm&lt;span style=&quot;color: rgba(0, 0, 0, 0); font-family: monospace; font-size: 0px; text-align: start; text-wrap-mode: nowrap;&quot;&gt;%3CmxGraphModel%3E%3Croot%3E%3CmxCell%20id%3D%220%22%2F%3E%3CmxCell%20id%3D%221%22%20parent%3D%220%22%2F%3E%3CmxCell%20id%3D%222%22%20value%3D%22%26amp%3Blt%3B%26amp%3Blt%3Binclude%26amp%3Bgt%3B%26amp%3Bgt%3B%22%20style%3D%22edgeStyle%3Dnone%3Bhtml%3D1%3BendArrow%3Dopen%3BverticalAlign%3Dbottom%3Bdashed%3D1%3BlabelBackgroundColor%3Dnone%3Brounded%3D0%3BexitX%3D1%3BexitY%3D0.5%3BexitDx%3D0%3BexitDy%3D0%3BentryX%3D0%3BentryY%3D0.5%3BentryDx%3D0%3BentryDy%3D0%3B%22%20edge%3D%221%22%20parent%3D%221%22%3E%3CmxGeometry%20width%3D%22160%22%20relative%3D%221%22%20as%3D%22geometry%22%3E%3CmxPoint%20x%3D%22540%22%20y%3D%22370%22%20as%3D%22sourcePoint%22%2F%3E%3CmxPoint%20x%3D%22580%22%20y%3D%22485%22%20as%3D%22targetPoint%22%2F%3E%3C%2FmxGeometry%3E%3C%2FmxCell%3E%3C%2Froot%3E%3C%2FmxGraphModel%3E&lt;/span&gt;" style="ellipse;whiteSpace=wrap;html=1;" vertex="1" parent="1">
          <mxGeometry x="450" y="300" width="140" height="70" as="geometry" />
        </mxCell>
        <mxCell id="Ob8XqHAcb-Q5rWQWY1fi-14" value="Chọn số lượng" style="ellipse;whiteSpace=wrap;html=1;" vertex="1" parent="1">
          <mxGeometry x="450" y="90" width="140" height="70" as="geometry" />
        </mxCell>
        <mxCell id="Ob8XqHAcb-Q5rWQWY1fi-15" value="Đăng nhập" style="ellipse;whiteSpace=wrap;html=1;" vertex="1" parent="1">
          <mxGeometry x="450" y="-10" width="140" height="70" as="geometry" />
        </mxCell>
        <mxCell id="Ob8XqHAcb-Q5rWQWY1fi-16" value="&amp;lt;&amp;lt;include&amp;gt;&amp;gt;" style="edgeStyle=elbowEdgeStyle;html=1;endArrow=open;verticalAlign=bottom;dashed=1;labelBackgroundColor=none;rounded=0;exitX=0.566;exitY=-0.017;exitDx=0;exitDy=0;entryX=0;entryY=0.5;entryDx=0;entryDy=0;exitPerimeter=0;elbow=vertical;" edge="1" parent="1" source="Ob8XqHAcb-Q5rWQWY1fi-3" target="Ob8XqHAcb-Q5rWQWY1fi-15">
          <mxGeometry x="0.3126" y="-20" width="160" relative="1" as="geometry">
            <mxPoint x="360" y="245" as="sourcePoint" />
            <mxPoint x="460" y="135" as="targetPoint" />
            <Array as="points">
              <mxPoint x="370" y="25" />
            </Array>
            <mxPoint as="offset" />
          </mxGeometry>
        </mxCell>
        <mxCell id="Ob8XqHAcb-Q5rWQWY1fi-17" value="&amp;lt;&amp;lt;include&amp;gt;&amp;gt;" style="edgeStyle=elbowEdgeStyle;html=1;endArrow=open;verticalAlign=bottom;dashed=1;labelBackgroundColor=none;rounded=0;exitX=1;exitY=1;exitDx=0;exitDy=0;elbow=vertical;entryX=0;entryY=0.5;entryDx=0;entryDy=0;" edge="1" parent="1" source="Ob8XqHAcb-Q5rWQWY1fi-3" target="Ob8XqHAcb-Q5rWQWY1fi-10">
          <mxGeometry x="0.5238" y="5" width="160" relative="1" as="geometry">
            <mxPoint x="339" y="220" as="sourcePoint" />
            <mxPoint x="380" y="390" as="targetPoint" />
            <Array as="points">
              <mxPoint x="390" y="335" />
            </Array>
            <mxPoint as="offset" />
          </mxGeometry>
        </mxCell>
        <mxCell id="Ob8XqHAcb-Q5rWQWY1fi-18" value="Áp dụng mã giảm giá" style="ellipse;whiteSpace=wrap;html=1;" vertex="1" parent="1">
          <mxGeometry x="450" y="390" width="140" height="70" as="geometry" />
        </mxCell>
        <mxCell id="Ob8XqHAcb-Q5rWQWY1fi-19" value="&amp;lt;&amp;lt;extend&amp;gt;&amp;gt;" style="edgeStyle=elbowEdgeStyle;html=1;endArrow=open;verticalAlign=bottom;dashed=1;labelBackgroundColor=none;rounded=0;exitX=0.709;exitY=0.989;exitDx=0;exitDy=0;entryX=0;entryY=0.5;entryDx=0;entryDy=0;elbow=vertical;exitPerimeter=0;" edge="1" parent="1" source="Ob8XqHAcb-Q5rWQWY1fi-3" target="Ob8XqHAcb-Q5rWQWY1fi-18">
          <mxGeometry x="0.5238" y="5" width="160" relative="1" as="geometry">
            <mxPoint x="339" y="270" as="sourcePoint" />
            <mxPoint x="460" y="345" as="targetPoint" />
            <Array as="points">
              <mxPoint x="380" y="425" />
            </Array>
            <mxPoint as="offset" />
          </mxGeometry>
        </mxCell>
        <mxCell id="Ob8XqHAcb-Q5rWQWY1fi-23" value="Thêm địa chỉ mới" style="ellipse;whiteSpace=wrap;html=1;" vertex="1" parent="1">
          <mxGeometry x="680" y="200" width="140" height="70" as="geometry" />
        </mxCell>
        <mxCell id="Ob8XqHAcb-Q5rWQWY1fi-24" value="&amp;lt;&amp;lt;extend&amp;gt;&amp;gt;" style="html=1;endArrow=open;verticalAlign=bottom;dashed=1;labelBackgroundColor=none;rounded=0;exitX=1;exitY=0.5;exitDx=0;exitDy=0;entryX=0;entryY=0.5;entryDx=0;entryDy=0;elbow=vertical;" edge="1" parent="1" source="Ob8XqHAcb-Q5rWQWY1fi-4" target="Ob8XqHAcb-Q5rWQWY1fi-23">
          <mxGeometry x="0.1111" y="5" width="160" relative="1" as="geometry">
            <mxPoint x="319" y="279" as="sourcePoint" />
            <mxPoint x="460" y="435" as="targetPoint" />
            <mxPoint as="offset" />
          </mxGeometry>
        </mxCell>
      </root>
    </mxGraphModel>
  </diagram>
</mxfile>
